<?xml version="1.0" encoding="UTF-8" standalone="no"?>
<!-- Created with Inkscape (http://www.inkscape.org/) -->

<svg
   width="600"
   height="600"
   viewBox="0 0 600 600"
   version="1.1"
   id="svg1"
   sodipodi:docname="benfca.svg"
   inkscape:version="1.3.2 (091e20e, 2023-11-25, custom)"
   xmlns:inkscape="http://www.inkscape.org/namespaces/inkscape"
   xmlns:sodipodi="http://sodipodi.sourceforge.net/DTD/sodipodi-0.dtd"
   xmlns="http://www.w3.org/2000/svg"
   xmlns:svg="http://www.w3.org/2000/svg">
  <sodipodi:namedview
     id="namedview1"
     pagecolor="#505050"
     bordercolor="#eeeeee"
     borderopacity="1"
     inkscape:showpageshadow="0"
     inkscape:pageopacity="0"
     inkscape:pagecheckerboard="0"
     inkscape:deskcolor="#505050"
     inkscape:document-units="px"
     inkscape:zoom="0.5"
     inkscape:cx="347"
     inkscape:cy="357"
     inkscape:window-width="1920"
     inkscape:window-height="1009"
     inkscape:window-x="-8"
     inkscape:window-y="-8"
     inkscape:window-maximized="1"
     inkscape:current-layer="layer1"
     showguides="false" />
  <defs
     id="defs1" />
  <g
     inkscape:label="Camada 1"
     inkscape:groupmode="layer"
     id="layer1">
    <path
       d="M 319.72537,221.34015 V 421.3382 h 0.043 v -200 a 200,200 0 0 0 -0.043,0.002 z"
       id="path19"
       style="fill:#000000" />
    <path
       d="M 474.26829,421.45148 A 150,150 0 0 0 324.28391,271.46125 v 149.99023 z"
       style="fill:#000000;stroke-width:60"
       id="path12" />
    <path
       d="m 324.14321,174.12988 v 92.78056 A 155.42448,154.61748 0 0 1 479.5515,421.51786 h 93.27087 A 248.67916,247.38798 0 0 0 324.14321,174.12988 Z"
       style="fill:#000000;stroke-width:62.0083"
       id="path10" />
    <path
       d="M 319.72537,221.34015 A 200,200 0 0 0 119.76834,421.3382 h 199.95703 z"
       style="fill:#000000;stroke-width:60"
       id="path20" />
    <path
       d="M 319.70392,135.55669 A 286.49632,285.97487 0 0 0 33.207608,421.53156 H 319.70392 v -0.19749 H 115.10767 A 204.64023,204.26777 0 0 1 319.70392,217.0683 Z"
       style="fill:#000000;stroke-width:61.3362"
       id="path18" />
  </g>
</svg>
